<svg width="16" height="12" viewBox="0 0 16 12" fill="none" xmlns="http://www.w3.org/2000/svg">
<path d="M7.33342 1.00057C7.33342 1.3687 7.03497 1.66713 6.66683 1.66715H0.667581C0.154449 1.66717 -0.166257 1.1117 0.0902864 0.667298C0.20936 0.461041 0.429428 0.333984 0.667581 0.333984H6.66683C7.03497 0.333997 7.33342 0.632436 7.33342 1.00057ZM6.66683 3.6669H0.667581C0.154449 3.66688 -0.166257 4.22235 0.0902864 4.66675C0.20936 4.873 0.429428 5.00007 0.667581 5.00007H6.66683C7.17997 5.00007 7.50068 4.44458 7.24411 4.00019C7.12505 3.79396 6.90497 3.66691 6.66683 3.6669ZM6.66683 6.99982H0.667581C0.154449 6.99982 -0.166263 7.5553 0.0903055 7.99969C0.209385 8.20594 0.429428 8.333 0.667581 8.33299H6.66683C7.17997 8.33296 7.50069 7.77746 7.2441 7.33309C7.12502 7.12686 6.90497 6.99982 6.66683 6.99982ZM6.66683 10.3327H0.667581C0.154449 10.3327 -0.166257 10.8882 0.0902864 11.3326C0.20936 11.5388 0.429428 11.6659 0.667581 11.6659H6.66683C7.17997 11.6659 7.50068 11.1104 7.24411 10.666C7.12505 10.4598 6.90497 10.3327 6.66683 10.3327ZM9.33317 1.66715H15.3324C15.8456 1.66715 16.1663 1.11166 15.9097 0.667272C15.7906 0.461035 15.5706 0.333984 15.3324 0.333984H9.33317C8.82003 0.333984 8.49932 0.88947 8.75589 1.33386C8.87496 1.5401 9.09502 1.66715 9.33317 1.66715ZM15.3324 3.6669H9.33317C8.82003 3.66688 8.49933 4.22235 8.75588 4.66675C8.87494 4.873 9.09501 5.00007 9.33317 5.00007H15.3324C15.8456 5.00007 16.1663 4.44458 15.9097 4.00019C15.7906 3.79396 15.5706 3.66691 15.3324 3.6669ZM15.3324 6.99982H9.33317C8.82003 6.9998 8.49933 7.55527 8.75588 7.99967C8.87494 8.20593 9.09501 8.33299 9.33317 8.33299H15.3324C15.8456 8.33299 16.1663 7.7775 15.9097 7.33311C15.7906 7.12688 15.5706 6.99983 15.3324 6.99982ZM15.3324 10.3327H9.33317C8.82003 10.3327 8.49932 10.8882 8.75589 11.3326C8.87497 11.5389 9.09501 11.6659 9.33317 11.6659H15.3324C15.8456 11.6659 16.1663 11.1104 15.9097 10.666C15.7906 10.4598 15.5706 10.3327 15.3324 10.3327Z" fill="black"/>
</svg>
