<svg width="17" height="17" viewBox="0 0 17 17" fill="none" xmlns="http://www.w3.org/2000/svg">
<g clip-path="url(#clip0_173_826)">
<path d="M8.05419 0.891632H1.78982C1.31513 0.891632 0.859883 1.0802 0.524226 1.41586C0.18857 1.75151 0 2.20676 0 2.68145V15.2102C0 15.6849 0.18857 16.1401 0.524226 16.4758C0.859883 16.8114 1.31513 17 1.78982 17H14.3186C14.7933 17 15.2485 16.8114 15.5842 16.4758C15.9198 16.1401 16.1084 15.6849 16.1084 15.2102V8.94582" stroke="#00B5E4" stroke-width="2" stroke-linecap="round" stroke-linejoin="round"/>
<path d="M13.7592 0.556026C14.1152 0.200008 14.5981 0 15.1016 0C15.6051 0 16.0879 0.200008 16.4439 0.556026C16.8 0.912043 17 1.39491 17 1.89839C17 2.40188 16.8 2.88474 16.4439 3.24076L8.37813 11.3075C8.16563 11.5198 7.90311 11.6752 7.61477 11.7594L5.04369 12.5111C4.96668 12.5336 4.88506 12.5349 4.80735 12.515C4.72965 12.4951 4.65872 12.4547 4.602 12.398C4.54528 12.3413 4.50485 12.2703 4.48495 12.1926C4.46504 12.1149 4.46639 12.0333 4.48885 11.9563L5.24057 9.38521C5.32516 9.09709 5.48088 8.83489 5.69339 8.62275L13.7592 0.556026Z" stroke="#00B5E4" stroke-width="2" stroke-linecap="round" stroke-linejoin="round"/>
</g>
<defs>
<clipPath id="clip0_173_826">
<rect width="17" height="17" fill="white"/>
</clipPath>
</defs>
</svg>
