<svg width="15" height="18" viewBox="0 0 15 18" fill="none" xmlns="http://www.w3.org/2000/svg">
<path d="M2.116 18C1.668 18 1.28667 17.8427 0.972 17.528C0.657333 17.2133 0.5 16.8323 0.5 16.385V7.615C0.5 7.16833 0.657333 6.78733 0.972 6.472C1.28667 6.15733 1.668 6 2.116 6H3.5V4C3.5 2.886 3.88833 1.941 4.665 1.165C5.441 0.388333 6.386 0 7.5 0C8.614 0 9.55933 0.388333 10.336 1.165C11.1127 1.94167 11.5007 2.88667 11.5 4V6H12.885C13.3317 6 13.7127 6.15733 14.028 6.472C14.3427 6.78667 14.5 7.168 14.5 7.616V16.385C14.5 16.8317 14.3427 17.2127 14.028 17.528C13.7133 17.8427 13.3323 18 12.885 18H2.116ZM2.116 17H12.885C13.0643 17 13.2117 16.9423 13.327 16.827C13.4423 16.7117 13.5 16.5643 13.5 16.385V7.615C13.5 7.43567 13.4423 7.28833 13.327 7.173C13.2117 7.05767 13.0643 7 12.885 7H2.115C1.93567 7 1.78833 7.05767 1.673 7.173C1.55767 7.28833 1.5 7.436 1.5 7.616V16.385C1.5 16.5643 1.55767 16.7117 1.673 16.827C1.78833 16.9423 1.936 17 2.116 17ZM7.5 13.5C7.922 13.5 8.27733 13.3553 8.566 13.066C8.85533 12.7773 9 12.422 9 12C9 11.578 8.85533 11.2227 8.566 10.934C8.27667 10.6453 7.92133 10.5007 7.5 10.5C7.07867 10.4993 6.72333 10.644 6.434 10.934C6.14467 11.2227 6 11.578 6 12C6 12.422 6.14467 12.7773 6.434 13.066C6.72267 13.3553 7.078 13.5 7.5 13.5ZM4.5 6H10.5V4C10.5 3.16667 10.2083 2.45833 9.625 1.875C9.04167 1.29167 8.33333 1 7.5 1C6.66667 1 5.95833 1.29167 5.375 1.875C4.79167 2.45833 4.5 3.16667 4.5 4V6Z" fill="black"/>
</svg>
