<svg width="15" height="15" viewBox="0 0 15 15" fill="none" xmlns="http://www.w3.org/2000/svg">
<path fill-rule="evenodd" clip-rule="evenodd" d="M2.8993 0.499875C2.8993 0.393815 2.85717 0.292099 2.78217 0.217103C2.70718 0.142108 2.60546 0.0999756 2.4994 0.0999756C2.39334 0.0999756 2.29163 0.142108 2.21663 0.217103C2.14163 0.292099 2.0995 0.393815 2.0995 0.499875V1.09972H1.49965C1.39359 1.09972 1.29188 1.14186 1.21688 1.21685C1.14189 1.29185 1.09975 1.39356 1.09975 1.49962C1.09975 1.60568 1.14189 1.7074 1.21688 1.78239C1.29188 1.85739 1.39359 1.89952 1.49965 1.89952H2.0995V2.49937C2.0995 2.55189 2.10985 2.60389 2.12994 2.65241C2.15004 2.70092 2.1795 2.74501 2.21663 2.78214C2.25376 2.81928 2.29785 2.84873 2.34637 2.86883C2.39488 2.88893 2.44689 2.89927 2.4994 2.89927C2.55192 2.89927 2.60392 2.88893 2.65244 2.86883C2.70095 2.84873 2.74504 2.81928 2.78217 2.78214C2.81931 2.74501 2.84876 2.70092 2.86886 2.65241C2.88896 2.60389 2.8993 2.55189 2.8993 2.49937V1.89952H3.49915C3.60521 1.89952 3.70693 1.85739 3.78192 1.78239C3.85692 1.7074 3.89905 1.60568 3.89905 1.49962C3.89905 1.39356 3.85692 1.29185 3.78192 1.21685C3.70693 1.14186 3.60521 1.09972 3.49915 1.09972H2.8993V0.499875ZM5.89854 3.49912C5.89854 3.4466 5.8882 3.3946 5.8681 3.34608C5.84801 3.29757 5.81855 3.25348 5.78142 3.21635C5.74428 3.17921 5.7002 3.14976 5.65168 3.12966C5.60316 3.10956 5.55116 3.09922 5.49865 3.09922C5.44613 3.09922 5.39413 3.10956 5.34561 3.12966C5.29709 3.14976 5.25301 3.17921 5.21587 3.21635C5.17874 3.25348 5.14928 3.29757 5.12919 3.34608C5.10909 3.3946 5.09875 3.4466 5.09875 3.49912V4.09897H4.4989C4.44638 4.09897 4.39438 4.10931 4.34586 4.12941C4.29734 4.14951 4.25326 4.17896 4.21613 4.2161C4.17899 4.25323 4.14954 4.29731 4.12944 4.34583C4.10934 4.39435 4.099 4.44635 4.099 4.49887C4.099 4.55138 4.10934 4.60338 4.12944 4.6519C4.14954 4.70042 4.17899 4.7445 4.21613 4.78164C4.25326 4.81877 4.29734 4.84823 4.34586 4.86833C4.39438 4.88842 4.44638 4.89877 4.4989 4.89877H5.09875V5.49862C5.09875 5.55113 5.10909 5.60313 5.12919 5.65165C5.14928 5.70017 5.17874 5.74425 5.21587 5.78139C5.25301 5.81852 5.29709 5.84798 5.34561 5.86807C5.39413 5.88817 5.44613 5.89851 5.49865 5.89851C5.55116 5.89851 5.60316 5.88817 5.65168 5.86807C5.7002 5.84798 5.74428 5.81852 5.78142 5.78139C5.81855 5.74425 5.84801 5.70017 5.8681 5.65165C5.8882 5.60313 5.89854 5.55113 5.89854 5.49862V4.89877H6.49839C6.60445 4.89877 6.70617 4.85663 6.78116 4.78164C6.85616 4.70664 6.89829 4.60493 6.89829 4.49887C6.89829 4.39281 6.85616 4.29109 6.78116 4.2161C6.70617 4.1411 6.60445 4.09897 6.49839 4.09897H5.89854V3.49912ZM1.89955 6.49836C1.89955 6.3923 1.85742 6.29059 1.78242 6.21559C1.70743 6.1406 1.60571 6.09846 1.49965 6.09846C1.39359 6.09846 1.29188 6.1406 1.21688 6.21559C1.14189 6.29059 1.09975 6.3923 1.09975 6.49836V7.09821H0.499905C0.393845 7.09821 0.29213 7.14034 0.217134 7.21534C0.142138 7.29034 0.100006 7.39205 0.100006 7.49811C0.100006 7.60417 0.142138 7.70589 0.217134 7.78088C0.29213 7.85588 0.393845 7.89801 0.499905 7.89801H1.09975V8.49786C1.09975 8.60392 1.14189 8.70563 1.21688 8.78063C1.29188 8.85563 1.39359 8.89776 1.49965 8.89776C1.60571 8.89776 1.70743 8.85563 1.78242 8.78063C1.85742 8.70563 1.89955 8.60392 1.89955 8.49786V7.89801H2.4994C2.60546 7.89801 2.70718 7.85588 2.78217 7.78088C2.85717 7.70589 2.8993 7.60417 2.8993 7.49811C2.8993 7.39205 2.85717 7.29034 2.78217 7.21534C2.70718 7.14034 2.60546 7.09821 2.4994 7.09821H1.89955V6.49836ZM8.54188 0.981753L8.24395 0.941763C8.03101 0.917769 7.90404 1.16571 8.02701 1.34166C8.79311 2.44459 9.20274 3.75583 9.20071 5.09872C9.20014 6.78672 8.55286 8.41035 7.39197 9.63577C6.23107 10.8612 4.64479 11.5953 2.95929 11.6871C2.74534 11.6991 2.62637 11.951 2.77633 12.104C2.84482 12.1741 2.91482 12.2428 2.98628 12.3099L3.05826 12.3759L3.31819 12.6018L3.50615 12.7498L3.62712 12.8398L3.81407 12.9707L3.99003 13.0857C4.11 13.1617 4.23396 13.2347 4.35993 13.3026L4.62387 13.4376L4.8838 13.5576L5.18672 13.6796L5.43066 13.7655C5.79006 13.8838 6.15901 13.9708 6.53338 14.0255L6.8503 14.0655L7.11724 14.0855C8.07689 14.1415 9.03719 13.9871 9.93096 13.6332C10.8247 13.2793 11.6304 12.7343 12.2915 12.0365C12.9527 11.3387 13.4534 10.5049 13.7586 9.59331C14.0638 8.68176 14.1662 7.71454 14.0585 6.7593L14.0215 6.48237C13.9468 5.99795 13.818 5.52344 13.6376 5.06772L13.5246 4.79979L13.4476 4.63383L13.3737 4.48587C13.2152 4.17774 13.0326 3.88257 12.8278 3.60309L12.6748 3.40314L12.4759 3.1632L12.3129 2.98325L12.193 2.85928L12.033 2.70132L11.8101 2.50137L11.4901 2.24144L11.2452 2.06448L10.9533 1.87453L10.6324 1.68858L10.3044 1.52362L10.1915 1.47163L9.95152 1.37066L9.67559 1.26668L9.42366 1.1847L9.09874 1.09472L8.8338 1.03474L8.54188 0.981753ZM10.4014 5.29867C10.4022 4.30609 10.2079 3.32305 9.82955 2.40539C11.1747 3.03486 12.2146 4.17288 12.7206 5.56912C13.2267 6.96535 13.1573 8.50541 12.5279 9.85052C11.8984 11.1956 10.7604 12.2356 9.36415 12.7416C7.96792 13.2476 6.42785 13.1783 5.08275 12.5488C6.52467 12.0945 7.79854 11.2209 8.74183 10.0395C8.83486 10.1675 8.96608 10.2628 9.11665 10.3117C9.26723 10.3605 9.4294 10.3604 9.5799 10.3113C9.73039 10.2622 9.86145 10.1667 9.95426 10.0385C10.0471 9.91022 10.0969 9.75588 10.0965 9.59758C10.0966 9.42746 10.0389 9.26235 9.9328 9.12936C9.82671 8.99637 9.67854 8.90342 9.51263 8.86577C9.57462 8.7498 9.6346 8.63082 9.69059 8.51086C9.85499 8.61257 10.0407 8.67475 10.2332 8.69252C10.4258 8.71029 10.6198 8.68315 10.8 8.61324C10.9802 8.54333 11.1418 8.43256 11.272 8.28964C11.4022 8.14672 11.4974 7.97555 11.5502 7.78958C11.603 7.60362 11.612 7.40794 11.5764 7.21792C11.5408 7.02791 11.4616 6.84875 11.345 6.69453C11.2284 6.54032 11.0777 6.41525 10.9046 6.32917C10.7315 6.24308 10.5407 6.19833 10.3474 6.19844C10.3814 5.90351 10.3994 5.60359 10.3994 5.29867" fill="black"/>
</svg>
