<svg width="17" height="20" viewBox="0 0 17 20" fill="none" xmlns="http://www.w3.org/2000/svg">
<path d="M14.251 11.995C14.8474 11.9955 15.4192 12.2328 15.8407 12.6547C16.2622 13.0766 16.499 13.6486 16.499 14.245V14.82C16.499 15.714 16.179 16.579 15.599 17.258C14.029 19.091 11.642 19.996 8.496 19.996C5.35 19.996 2.964 19.091 1.398 17.256C0.818608 16.5774 0.500207 15.7143 0.5 14.822V14.244C0.500265 13.6476 0.737298 13.0757 1.15901 12.654C1.58072 12.2323 2.15261 11.9953 2.749 11.995H14.251ZM14.251 13.495H2.748C2.54909 13.495 2.35832 13.574 2.21767 13.7147C2.07702 13.8553 1.998 14.0461 1.998 14.245V14.822C1.998 15.357 2.19 15.875 2.538 16.282C3.791 17.751 5.758 18.496 8.495 18.496C11.234 18.496 13.201 17.751 14.458 16.283C14.8066 15.8753 14.9982 15.3564 14.998 14.82V14.244C14.9977 14.0456 14.9189 13.8554 14.7787 13.715C14.6385 13.5746 14.4494 13.4955 14.251 13.495ZM8.496 0C9.15261 -9.78424e-09 9.80279 0.129329 10.4094 0.380602C11.016 0.631876 11.5672 1.00017 12.0315 1.46447C12.4958 1.92876 12.8641 2.47995 13.1154 3.08658C13.3667 3.69321 13.496 4.34339 13.496 5C13.496 5.65661 13.3667 6.30679 13.1154 6.91342C12.8641 7.52004 12.4958 8.07124 12.0315 8.53553C11.5672 8.99983 11.016 9.36812 10.4094 9.6194C9.80279 9.87067 9.15261 10 8.496 10C7.16992 10 5.89815 9.47322 4.96047 8.53553C4.02278 7.59785 3.496 6.32608 3.496 5C3.496 3.67392 4.02278 2.40215 4.96047 1.46447C5.89815 0.526784 7.16992 0 8.496 0ZM8.496 1.5C8.03637 1.5 7.58125 1.59053 7.15661 1.76642C6.73197 1.94231 6.34613 2.20012 6.02113 2.52513C5.69612 2.85013 5.43831 3.23597 5.26242 3.66061C5.08653 4.08525 4.996 4.54037 4.996 5C4.996 5.45963 5.08653 5.91475 5.26242 6.33939C5.43831 6.76403 5.69612 7.14987 6.02113 7.47487C6.34613 7.79988 6.73197 8.05769 7.15661 8.23358C7.58125 8.40947 8.03637 8.5 8.496 8.5C9.42426 8.5 10.3145 8.13125 10.9709 7.47487C11.6273 6.8185 11.996 5.92826 11.996 5C11.996 4.07174 11.6273 3.1815 10.9709 2.52513C10.3145 1.86875 9.42426 1.5 8.496 1.5Z" fill="black"/>
</svg>
