<svg width="16" height="16" viewBox="0 0 16 16" fill="none" xmlns="http://www.w3.org/2000/svg">
<path d="M0.159973 2.96002C0.159973 2.65072 0.410673 2.40002 0.719973 2.40002H15.28C15.5893 2.40002 15.84 2.65072 15.84 2.96002V4.08002C15.84 4.38932 15.5893 4.64002 15.28 4.64002H0.719973C0.410673 4.64002 0.159973 4.38932 0.159973 4.08002V2.96002ZM0.159973 7.44002C0.159973 7.13072 0.410673 6.88002 0.719973 6.88002H6.31997C6.62927 6.88002 6.87997 7.13072 6.87997 7.44002V8.56002C6.87997 8.86932 6.62927 9.12002 6.31997 9.12002H0.719973C0.410673 9.12002 0.159973 8.86932 0.159973 8.56002V7.44002ZM0.159973 11.92C0.159973 11.6107 0.410673 11.36 0.719973 11.36H1.83997C2.14927 11.36 2.39997 11.6107 2.39997 11.92V13.04C2.39997 13.3493 2.14927 13.6 1.83997 13.6H0.719973C0.410673 13.6 0.159973 13.3493 0.159973 13.04V11.92ZM9.11997 11.92C9.11997 11.6107 9.37067 11.36 9.67997 11.36H10.8C11.1093 11.36 11.36 11.6107 11.36 11.92V13.04C11.36 13.3493 11.1093 13.6 10.8 13.6H9.67997C9.37067 13.6 9.11997 13.3493 9.11997 13.04V11.92ZM4.63997 11.92C4.63997 11.6107 4.89067 11.36 5.19997 11.36H6.31997C6.62927 11.36 6.87997 11.6107 6.87997 11.92V13.04C6.87997 13.3493 6.62927 13.6 6.31997 13.6H5.19997C4.89067 13.6 4.63997 13.3493 4.63997 13.04V11.92ZM13.6 11.92C13.6 11.6107 13.8507 11.36 14.16 11.36H15.28C15.5893 11.36 15.84 11.6107 15.84 11.92V13.04C15.84 13.3493 15.5893 13.6 15.28 13.6H14.16C13.8507 13.6 13.6 13.3493 13.6 13.04V11.92ZM9.11997 7.44002C9.11997 7.13072 9.37067 6.88002 9.67997 6.88002H15.28C15.5893 6.88002 15.84 7.13072 15.84 7.44002V8.56002C15.84 8.86932 15.5893 9.12002 15.28 9.12002H9.67997C9.37067 9.12002 9.11997 8.86932 9.11997 8.56002V7.44002Z" fill="black"/>
</svg>
